<svg width="65" height="80" viewBox="0 0 65 80" fill="none" xmlns="http://www.w3.org/2000/svg">
<g clip-path="url(#clip0_1_852)">
<path d="M29.4823 80C27.7947 79.4335 27.0998 78.2418 27.219 76.5226C27.2587 75.917 27.219 75.2918 27.219 74.569C26.0476 74.569 24.9755 74.569 23.9034 74.569C21.5806 74.5495 20.3894 73.3969 20.3894 71.1111C20.3894 70.0953 20.2703 69.0794 20.8857 68.1612C20.9651 68.044 20.8063 67.7509 20.7468 67.536C20.2107 66.0122 20.1313 64.4689 20.8063 62.9842C21.0049 62.5544 21.4019 62.1441 21.8188 61.9292C22.335 61.6362 22.5137 61.3236 22.4939 60.7766C22.4541 59.5263 22.4541 58.276 22.4939 57.0257C22.5534 54.6813 21.5806 52.9426 19.5556 51.6728C15.4856 49.094 12.3885 45.6362 10.562 41.221C7.02806 32.7033 8.08029 24.6936 13.7584 17.3871C17.5901 12.464 22.7519 9.61174 28.9859 8.61541C29.1447 8.59587 29.3036 8.57633 29.4624 8.5568C30.2565 8.49819 30.7727 8.84984 30.8918 9.49453C31.011 10.1197 30.5742 10.6862 29.7999 10.862C28.7477 11.0965 27.6557 11.2332 26.6234 11.5458C19.7144 13.5776 14.8304 17.9146 12.3488 24.5763C8.77516 34.2076 12.1899 44.0733 20.8857 49.7387C23.5858 51.497 24.916 53.9194 24.8564 57.0843C24.8366 58.4909 24.8564 59.8975 24.8564 61.3431C29.9389 61.3431 34.9816 61.3431 40.1435 61.3431C40.1435 60.4249 40.1038 59.4872 40.1435 58.569C40.2229 57.1429 40.2229 55.6972 40.5207 54.3102C40.9178 52.5519 42.0097 51.1649 43.5385 50.149C46.0797 48.4494 48.3827 46.5348 50.1298 44.0342C52.0357 41.3382 53.2269 38.3688 53.7629 35.1453C53.7828 34.989 53.8027 34.8327 53.8424 34.6765C54.0409 33.8755 54.5571 33.4848 55.2321 33.602C55.9071 33.7192 56.2843 34.2662 56.1652 35.0867C55.8078 37.7436 55.0137 40.2638 53.7629 42.6472C51.857 46.2613 49.2364 49.2503 45.762 51.4384C43.3995 52.9231 42.3274 54.9353 42.5061 57.6704C42.5855 58.7839 42.4862 59.917 42.5458 61.0306C42.5656 61.3041 42.7642 61.6557 43.0024 61.812C44.0546 62.4567 44.6304 63.3553 44.6105 64.5861C44.5907 65.6997 44.8091 66.8327 44.1142 67.8486C44.0546 67.9463 44.1142 68.1807 44.1936 68.337C44.8686 69.685 44.7495 71.0916 44.4517 72.4591C44.1738 73.7094 43.0421 74.5299 41.7318 74.5885C40.4413 74.6276 39.1509 74.5885 37.781 74.5885C37.781 75.3505 37.7413 75.9951 37.781 76.6398C37.9001 78.3395 37.1854 79.4921 35.5177 80.0586C33.5125 80 31.5073 80 29.4823 80ZM32.5397 63.7461C29.6411 63.7461 26.7226 63.7656 23.824 63.7461C23.0895 63.7461 22.7321 64.0196 22.7718 64.7619C22.7917 64.9964 22.7718 65.2308 22.7718 65.4652C22.7718 66.7155 22.8909 66.8328 24.1814 66.8328C29.522 66.8328 34.8625 66.8328 40.2031 66.8328C42.2678 66.8328 42.2678 66.8327 42.2281 64.8205C42.2083 63.8828 42.0693 63.7461 41.0965 63.7461C38.2575 63.7461 35.3986 63.7461 32.5397 63.7461ZM32.5794 69.1771C29.8992 69.1771 27.2388 69.1771 24.5586 69.1771C22.7718 69.1771 22.7718 69.1771 22.7718 70.9353C22.7718 72.1465 22.8512 72.2247 24.0821 72.2247C29.4823 72.2247 34.8824 72.2247 40.2825 72.2247C42.248 72.2247 42.248 72.2247 42.2281 70.3102C42.2083 69.3138 42.0892 69.1771 41.0766 69.1771C38.2376 69.1771 35.4184 69.1771 32.5794 69.1771ZM29.6212 74.6081C29.6212 75.4677 29.5815 76.2491 29.6411 77.0305C29.6609 77.265 30.0183 77.6166 30.2367 77.6362C31.7455 77.6948 33.2345 77.6948 34.7434 77.6362C34.9618 77.6362 35.3191 77.3236 35.339 77.1282C35.3986 76.3077 35.3589 75.4872 35.3589 74.6276C33.4331 74.6081 31.5867 74.6081 29.6212 74.6081Z" fill="#F2BA5B"/>
<path d="M28.6881 20.0831C28.6881 18.9695 28.6683 17.895 28.6881 16.8401C28.708 15.5898 29.3235 14.9646 30.5941 14.9255C31.8647 14.8865 33.1353 14.8865 34.4059 14.9255C35.6964 14.9646 36.292 15.6093 36.3118 16.9182C36.3317 17.9732 36.3118 19.0476 36.3118 20.0831C38.2972 21.0012 38.2972 21.0012 39.7663 19.5556C40.1237 19.2039 40.4612 18.8327 40.8384 18.5202C41.6723 17.8169 42.526 17.7973 43.3201 18.5202C44.2929 19.4384 45.2459 20.3761 46.179 21.3334C46.9533 22.1343 46.9533 23.0135 46.179 23.834C45.504 24.5373 44.8091 25.221 44.0944 25.8853C43.7966 26.1588 43.8164 26.3932 43.9157 26.7644C44.2333 28.0342 44.9679 28.5226 46.2782 28.3077C46.8937 28.21 47.5489 28.2686 48.1842 28.3077C49.1371 28.3663 49.7724 28.9524 49.8121 29.9097C49.8519 31.3163 49.8519 32.7229 49.8121 34.1295C49.7724 35.1844 49.0974 35.7705 47.9261 35.8095C46.993 35.8291 46.0797 35.8291 45.1466 35.8095C44.7098 35.79 44.551 35.9854 44.3326 36.337C43.6179 37.4506 43.876 38.2516 44.9282 38.9939C45.4245 39.3456 45.8216 39.8144 46.2187 40.2638C46.9334 41.0647 46.9533 41.9243 46.2187 42.7058C45.2856 43.6826 44.3326 44.6203 43.3598 45.519C42.526 46.3004 41.6127 46.2613 40.759 45.4603C40.0641 44.8157 39.4288 44.1124 38.7141 43.4872C38.5156 43.3309 38.1185 43.2918 37.8406 43.3309C36.4905 43.5458 36.0935 44.3663 36.292 45.6362C36.3913 46.2222 36.3317 46.8279 36.292 47.4335C36.2324 48.4494 35.5971 49.0745 34.5647 49.1136C33.1949 49.1526 31.8051 49.1526 30.4352 49.1136C29.3632 49.094 28.7278 48.4494 28.6881 47.3749C28.6484 46.4371 28.6683 45.4994 28.6881 44.5617C28.708 44.1124 28.5293 43.9365 28.1322 43.7021C26.9807 43.0183 26.1668 43.2723 25.4322 44.2882C25.0748 44.757 24.5983 45.1673 24.1417 45.558C23.3674 46.2418 22.474 46.2613 21.7196 45.5776C20.6872 44.6398 19.6946 43.663 18.7416 42.6472C18.0269 41.8853 18.0666 41.0061 18.821 40.2052C19.4762 39.5214 20.1512 38.8572 20.8461 38.2125C21.1637 37.9194 21.1637 37.7045 21.0644 37.2748C20.7269 36.044 20.0321 35.5556 18.7416 35.79C18.2056 35.8877 17.6298 35.8291 17.0739 35.8095C15.8033 35.7705 15.168 35.1453 15.1481 33.9146C15.1283 32.6643 15.1283 31.4139 15.1481 30.1636C15.168 28.9524 15.8033 28.3468 17.0143 28.3273C17.9673 28.3077 18.9203 28.3077 19.8732 28.3273C20.2902 28.3468 20.4688 28.1905 20.6078 27.8193C21.2034 26.276 21.2233 26.2955 20.0321 25.1233C19.6151 24.7131 19.1982 24.3224 18.8012 23.9121C18.0269 23.0916 18.007 22.232 18.7813 21.4115C19.6946 20.4738 20.6277 19.5556 21.5806 18.6569C22.4343 17.8559 23.3079 17.8559 24.1814 18.6374C24.8763 19.2821 25.5513 19.9463 26.2065 20.6301C26.5043 20.9426 26.7425 21.0403 27.1594 20.8254C27.6359 20.4738 28.1521 20.3175 28.6881 20.0831ZM42.0296 20.591C41.2355 21.392 40.4612 22.1734 39.6869 22.9353C38.9126 23.6972 38.6148 23.7168 37.6619 23.287C36.828 22.9158 35.9743 22.5251 35.1008 22.2516C34.2669 21.978 33.8897 21.5092 33.9294 20.6496C33.9691 19.536 33.9294 18.4225 33.9294 17.3089C32.9368 17.3089 32.0434 17.3089 31.0705 17.3089C31.0705 18.4811 31.0507 19.6337 31.0705 20.7668C31.0904 21.5287 30.7529 21.9585 30.0183 22.2125C29.1249 22.5251 28.2514 22.8767 27.3778 23.2674C26.3653 23.7168 26.0873 23.6972 25.2734 22.9158C24.4991 22.1539 23.7248 21.3724 23.0299 20.6691C22.2755 21.3529 21.6203 21.978 20.8858 22.6423C21.7395 23.4628 22.5733 24.2638 23.4071 25.0647C23.963 25.5922 24.0226 26.1392 23.6851 26.823C23.2682 27.663 22.9108 28.5226 22.5932 29.4017C22.2159 30.3785 21.938 30.613 20.8262 30.613C19.7541 30.613 18.6622 30.613 17.5702 30.613C17.5702 31.5898 17.5702 32.4689 17.5702 33.4262C18.7614 33.4262 19.8931 33.4457 21.0247 33.4262C21.8387 33.4066 22.2755 33.7778 22.5534 34.5202C22.8711 35.3993 23.2086 36.2784 23.6454 37.0989C24.0424 37.8804 23.963 38.4664 23.3277 39.0525C22.4939 39.8144 21.6997 40.6154 20.985 41.2992C21.6799 42.0415 22.2953 42.7058 22.9704 43.4286C23.7844 42.6081 24.5983 41.8071 25.3726 41.0061C25.9285 40.4396 26.5043 40.3614 27.2388 40.6936C28.1124 41.1038 29.0256 41.475 29.9389 41.7876C30.7132 42.0611 31.0904 42.5104 31.0705 43.3505C31.0308 44.464 31.0705 45.5776 31.0705 46.7106C32.0632 46.7106 32.9566 46.7106 33.9294 46.7106C33.9294 45.5385 33.9493 44.4249 33.9294 43.3114C33.9096 42.5104 34.2669 42.0611 35.0214 41.7876C35.9346 41.4555 36.8479 41.1038 37.7214 40.6936C38.4759 40.3419 39.0715 40.42 39.6472 41.0061C40.4215 41.8266 41.2355 42.5885 41.9899 43.3309C42.6848 42.6472 43.3399 42.022 44.0547 41.3187C43.2804 40.5763 42.4862 39.7754 41.6524 39.0135C41.0568 38.4469 40.9575 37.8608 41.3347 37.1185C41.7517 36.3175 42.0892 35.4579 42.4068 34.6179C42.7642 33.6411 43.0223 33.4262 44.0745 33.4262C45.1863 33.4262 46.2782 33.4262 47.4297 33.4262C47.4297 32.4494 47.4297 31.5702 47.4297 30.613C46.2584 30.613 45.1665 30.5934 44.0547 30.613C43.1811 30.6325 42.6848 30.2613 42.4267 29.4408C42.1289 28.5812 41.7914 27.7412 41.3745 26.9207C40.9774 26.1588 41.0369 25.5531 41.6723 24.9671C42.5061 24.2052 43.3201 23.4237 44.0745 22.6813C43.3598 21.9585 42.7245 21.3138 42.0296 20.591Z" fill="#F2BA5B"/>
<path d="M35.5772 8.55678C38.2376 8.86936 40.8781 9.63127 43.3598 10.9206C50.0107 14.3785 54.1997 19.7314 55.8873 26.9402C56.0461 27.6044 56.1454 28.2686 56.2248 28.9329C56.324 29.7143 55.9468 30.2808 55.2519 30.3981C54.6365 30.5153 54.0806 30.105 53.9019 29.3626C53.5446 27.917 53.3659 26.4322 52.8497 25.0452C49.9114 17.094 44.1539 12.4249 35.7162 10.9206C35.5177 10.8816 35.2993 10.862 35.1008 10.8034C34.4059 10.6081 33.989 10.0806 34.1279 9.49451C34.2669 8.83029 34.7235 8.51771 35.5772 8.55678Z" fill="#F2BA5B"/>
<path d="M31.3286 3.0867C31.3286 2.46154 31.3088 1.83639 31.3286 1.21124C31.3684 0.468869 31.8647 4.77023e-06 32.5 -0.0195312C33.1353 -0.0195312 33.6515 0.449333 33.6713 1.1917C33.7111 2.46154 33.7111 3.73138 33.6713 5.00123C33.6515 5.74359 33.1155 6.232 32.4801 6.17339C31.7853 6.11478 31.3684 5.70452 31.3485 5.00123C31.3088 4.39561 31.3286 3.73138 31.3286 3.0867Z" fill="#F2BA5B"/>
<path d="M3.11696 33.1331C2.4618 33.1331 1.80664 33.1526 1.13162 33.1331C0.436755 33.1135 0.0396873 32.7033 -1.94577e-05 32.0586C-0.0397262 31.4139 0.337488 30.906 1.0125 30.8864C2.42209 30.8278 3.85154 30.8278 5.28098 30.8864C5.93614 30.906 6.31336 31.3944 6.29351 32.0586C6.29351 32.6837 5.79717 33.1135 5.1023 33.1526C4.42729 33.1721 3.77212 33.1526 3.11696 33.1331C3.11696 33.1526 3.11696 33.1526 3.11696 33.1331Z" fill="#F2BA5B"/>
<path d="M61.8433 33.1527C61.1881 33.1527 60.533 33.1722 59.8579 33.1527C59.1829 33.1331 58.766 32.7424 58.7263 32.0977C58.6667 31.4335 59.0439 30.9256 59.719 30.906C61.1683 30.8474 62.6176 30.8474 64.047 30.906C64.6823 30.9256 65.0198 31.4335 65 32.0391C64.9801 32.6838 64.583 33.1136 63.8882 33.1331C63.2132 33.1527 62.5381 33.1331 61.8433 33.1527C61.8433 33.1331 61.8433 33.1331 61.8433 33.1527Z" fill="#F2BA5B"/>
<path d="M13.2025 14.2418C12.7657 13.9878 12.4282 13.8706 12.1701 13.6362C11.3164 12.8352 10.4826 12.0147 9.64874 11.1746C9.03328 10.5495 9.01343 9.90478 9.52962 9.39685C10.026 8.90845 10.7208 8.94752 11.3363 9.55314C12.2297 10.4127 13.1429 11.2332 13.9371 12.171C14.1952 12.464 14.2349 13.0892 14.1356 13.4994C14.0363 13.7729 13.54 13.9683 13.2025 14.2418Z" fill="#F2BA5B"/>
<path d="M51.7181 14.1636C51.46 13.9683 51.0033 13.7729 50.8842 13.4603C50.7452 13.1087 50.7452 12.5031 50.9835 12.2491C51.9166 11.1942 52.949 10.2174 53.9813 9.27964C54.438 8.86938 55.0336 8.92799 55.4902 9.37732C55.9071 9.78758 56.066 10.3541 55.649 10.7839C54.6365 11.8779 53.5446 12.8938 52.4725 13.9097C52.3335 14.0464 52.0754 14.0464 51.7181 14.1636Z" fill="#F2BA5B"/>
<path d="M14.4533 50.989C14.215 51.3993 14.1157 51.7314 13.8775 51.9658C13.0437 52.8254 12.19 53.6655 11.3164 54.5055C10.6811 55.1111 10.0061 55.1111 9.48991 54.6032C9.01342 54.0953 9.03328 53.4701 9.62888 52.884C10.4826 52.0049 11.3363 51.1062 12.2694 50.3248C12.587 50.0708 13.2025 49.9732 13.6194 50.0708C13.9569 50.149 14.1555 50.6569 14.4533 50.989Z" fill="#F2BA5B"/>
<path d="M51.8173 49.7387C52.2343 49.9927 52.5916 50.1294 52.8497 50.3639C53.7034 51.1648 54.5373 52.0049 55.3711 52.8449C55.9866 53.4701 56.0064 54.1343 55.4902 54.6227C54.9939 55.1111 54.3387 55.0916 53.7233 54.5055C52.8299 53.6654 51.9166 52.8254 51.1225 51.9072C50.8445 51.5946 50.7453 50.9695 50.8644 50.5788C50.9438 50.2466 51.46 50.0317 51.8173 49.7387Z" fill="#F2BA5B"/>
<path d="M32.5 25.7485C36.014 25.7485 38.8729 28.5421 38.8729 32C38.8729 35.4383 36.014 38.2711 32.5198 38.2906C29.0455 38.2906 26.1469 35.4579 26.1469 32.0195C26.127 28.5617 28.9859 25.7485 32.5 25.7485ZM28.5293 31.9805C28.5293 34.1294 30.3161 35.9072 32.5 35.9267C34.6839 35.9267 36.4905 34.1685 36.4905 32C36.4905 29.8315 34.7236 28.0733 32.5198 28.0733C30.3161 28.0733 28.5293 29.812 28.5293 31.9805Z" fill="#F2BA5B"/>
</g>
<defs>
<clipPath id="clip0_1_852">
<rect width="65" height="80" fill="white"/>
</clipPath>
</defs>
</svg>
