<svg width="73" height="74" viewBox="0 0 73 74" fill="none" xmlns="http://www.w3.org/2000/svg">
<path d="M27.1415 0C27.8409 0.0910792 28.5555 0.166979 29.255 0.288418C37.4201 1.57871 43.6087 5.79871 47.8205 12.8877C50.2229 16.9256 51.3025 21.3581 51.2264 26.0335C51.1504 30.8 49.8276 35.2477 47.2579 39.3007C47.0754 39.6043 46.893 39.9079 46.6801 40.2418C47.3187 40.9705 47.9573 41.6688 48.5807 42.3822C50.7247 44.7958 52.8686 47.2246 55.0429 49.623C55.2558 49.8659 55.6815 50.048 56.0009 50.048C57.1717 50.048 58.1296 50.4579 58.9507 51.2776C63.0561 55.3458 67.1919 59.3837 71.2516 63.4974C71.9967 64.2412 72.4224 65.2886 73.0002 66.1994C73.0002 67.0495 73.0002 67.9147 73.0002 68.7648C72.5593 69.9489 71.9663 71.0418 70.9323 71.8463C68.9405 73.4099 66.1731 73.425 64.2116 71.8312C63.8923 71.5731 63.6034 71.2999 63.3145 71.0266C59.346 67.0647 55.3927 63.0876 51.3785 59.1408C50.4206 58.1845 49.8884 57.1522 49.9644 55.8012C49.9796 55.5432 49.8884 55.2244 49.7211 55.027C47.0298 51.9759 44.3385 48.9399 41.632 45.9039C41.5864 45.8584 41.5255 45.828 41.4343 45.7673C40.6284 46.3138 39.853 46.9058 39.0167 47.3916C29.5743 52.826 20.1623 52.7045 11.1 46.6933C4.86589 42.534 1.29267 36.5076 0.273928 29.0695C-0.775229 21.5251 1.21665 14.7852 6.12792 8.98648C10.3397 4.03785 15.768 1.15367 22.2454 0.273238C22.8384 0.197338 23.4162 0.0910792 23.994 0C25.0431 0 26.0923 0 27.1415 0ZM25.6666 2.74756C12.8334 2.869 2.66114 12.994 2.60032 25.7906C2.5395 38.4658 12.955 48.8185 25.6666 48.8185C38.3933 48.8185 48.748 38.4962 48.7328 25.7906C48.7176 13.1609 38.6214 2.869 25.6666 2.74756ZM55.9705 52.2795C55.5447 52.5375 55.1494 52.6893 54.8605 52.9474C54.1914 53.5546 53.568 54.2073 52.9294 54.8449C52.1844 55.5887 52.1692 56.5906 52.9142 57.3496C57.0196 61.4481 61.1098 65.5467 65.2304 69.6301C66.5532 70.9355 68.5603 70.9659 69.7919 69.7515C71.0236 68.5523 70.9475 66.6548 69.6095 65.2886C65.5345 61.2052 61.4443 57.1219 57.3389 53.0537C57.0044 52.7349 56.4874 52.5679 55.9705 52.2795ZM43.3045 44.2493C45.9655 47.2246 48.5655 50.1391 51.1808 53.084C51.8498 52.4616 52.4733 51.8696 53.1271 51.2624C50.4358 48.2416 47.7901 45.2816 45.1292 42.3063C44.4753 42.9894 43.9128 43.5966 43.3045 44.2493Z" fill="#F2BA5B"/>
<path d="M6.29491 48.8792C7.10079 48.8792 7.84584 48.8792 8.68212 48.8792C8.68212 49.1827 8.68212 49.4408 8.68212 49.6837C8.68212 53.2965 8.68212 56.9093 8.68212 60.5221C8.68212 63.209 10.081 64.6055 12.7875 64.6055C26.4722 64.6055 40.172 64.6055 53.8567 64.6055C54.1608 64.6055 54.4649 64.6055 54.7994 64.6055C54.7994 65.4404 54.7994 66.1842 54.7994 66.9887C54.5713 67.0039 54.3736 67.0343 54.1608 67.0343C40.3241 67.0343 26.4874 67.0343 12.6659 67.0343C9.53361 67.0343 7.26804 65.3949 6.47738 62.5562C6.32532 62.0097 6.2645 61.4329 6.2645 60.8712C6.2493 57.0156 6.2493 53.1751 6.2493 49.3194C6.2493 49.1827 6.27971 49.0613 6.29491 48.8792Z" fill="#F2BA5B"/>
<path d="M11.1454 60.9017C11.1454 60.1123 11.1454 59.3533 11.1454 58.564C23.6744 58.564 36.1579 58.564 48.6869 58.564C48.6869 59.3533 48.6869 60.0971 48.6869 60.9017C36.1883 60.9017 23.7048 60.9017 11.1454 60.9017Z" fill="#F2BA5B"/>
<path d="M11.1454 56.0441C11.1454 55.2547 11.1454 54.4957 11.1454 53.7064C22.0475 53.7064 32.9192 53.7064 43.8365 53.7064C43.8365 54.4805 43.8365 55.2395 43.8365 56.0441C32.9496 56.0441 22.0931 56.0441 11.1454 56.0441Z" fill="#F2BA5B"/>
<path d="M47.5769 8.8347C47.5769 7.9998 47.5769 7.25599 47.5769 6.46664C47.7594 6.45146 47.9419 6.40592 48.1091 6.40592C52.3209 6.40592 56.5328 6.39074 60.7446 6.40592C63.7856 6.4211 65.9904 8.12124 66.7507 11.0054C66.9027 11.5974 66.9635 12.2198 66.9635 12.8422C66.9787 25.821 66.9787 38.7998 66.9635 51.7786C66.9635 51.9911 66.9483 52.1884 66.9331 52.4465C66.1424 52.4465 65.3974 52.4465 64.5307 52.4465C64.5307 52.1429 64.5307 51.8393 64.5307 51.5509C64.5307 38.7087 64.5307 25.8817 64.5155 13.0395C64.5155 12.3412 64.4395 11.5823 64.1658 10.9599C63.5272 9.47225 62.2803 8.8347 60.6838 8.8347C56.5936 8.8347 52.4882 8.8347 48.398 8.8347C48.1699 8.8347 47.9114 8.8347 47.5769 8.8347Z" fill="#F2BA5B"/>
<path d="M51.1958 14.8156C51.1958 14.0262 51.1958 13.2976 51.1958 12.5082C54.8146 12.5082 58.4182 12.5082 62.0675 12.5082C62.0675 13.2521 62.0675 14.011 62.0675 14.8156C58.4638 14.8156 54.8754 14.8156 51.1958 14.8156Z" fill="#F2BA5B"/>
<path d="M53.6438 20.8875C53.6438 20.1285 53.6438 19.3695 53.6438 18.5801C56.4568 18.5801 59.2393 18.5801 62.0827 18.5801C62.0827 19.324 62.0827 20.0829 62.0827 20.8875C59.2849 20.8875 56.4872 20.8875 53.6438 20.8875Z" fill="#F2BA5B"/>
<path d="M53.6438 30.6937C56.472 30.6937 59.2545 30.6937 62.0827 30.6937C62.0827 31.4831 62.0827 32.2269 62.0827 33.0314C59.2697 33.0314 56.4872 33.0314 53.6438 33.0314C53.6438 32.2724 53.6438 31.5286 53.6438 30.6937Z" fill="#F2BA5B"/>
<path d="M53.6286 26.9595C53.6286 26.1701 53.6286 25.4263 53.6286 24.6218C56.4568 24.6218 59.2545 24.6218 62.0827 24.6218C62.0827 25.4111 62.0827 26.1701 62.0827 26.9595C59.2545 26.9595 56.4568 26.9595 53.6286 26.9595Z" fill="#F2BA5B"/>
<path d="M62.0523 39.073C59.2545 39.073 56.4872 39.073 53.6438 39.073C53.6438 38.314 53.6438 37.5702 53.6438 36.7656C56.4111 36.7656 59.1937 36.7656 62.0523 36.7656C62.0523 37.5094 62.0523 38.2684 62.0523 39.073Z" fill="#F2BA5B"/>
<path d="M54.8754 45.1601C54.8754 44.3556 54.8754 43.6117 54.8754 42.8224C57.2778 42.8224 59.6499 42.8224 62.0675 42.8224C62.0675 43.5814 62.0675 44.3556 62.0675 45.1601C59.6803 45.1601 57.3083 45.1601 54.8754 45.1601Z" fill="#F2BA5B"/>
<path d="M5.01769 25.7754C5.07851 14.3905 14.2776 5.22185 25.6663 5.17631C37.0246 5.13077 46.3301 14.436 46.3149 25.8209C46.2997 37.2362 36.9789 46.4959 25.6207 46.3897C14.156 46.2834 4.97207 37.0844 5.01769 25.7754ZM7.45051 25.7754C7.4049 35.7789 15.5549 43.9305 25.6511 43.9761C35.7017 44.0216 43.8517 35.9004 43.8821 25.8361C43.8973 15.787 35.7929 7.68099 25.7119 7.62027C15.7069 7.54437 7.49613 15.7111 7.45051 25.7754Z" fill="#F2BA5B"/>
<path d="M40.7346 25.7451C39.8223 27.2479 38.5603 28.2801 37.2222 29.1757C30.5015 33.7145 23.492 34.1547 16.2847 30.3749C14.308 29.3427 12.6659 27.8399 11.1758 26.2005C10.9173 25.912 10.8109 25.6388 11.0998 25.3504C12.1489 24.3333 13.1372 23.21 14.308 22.36C17.8204 19.7946 21.8042 18.5802 26.1377 18.7168C31.0337 18.8686 35.2912 20.6446 38.8948 23.9842C39.5182 24.5459 40.1112 25.1379 40.7346 25.7451ZM27.5213 30.3749C31.4139 29.8588 34.6373 28.3408 37.4351 25.7906C34.6678 23.21 31.4595 21.7528 27.6126 21.2366C31.6571 23.3466 31.4443 28.4623 27.5213 30.3749ZM13.9431 25.7602C16.1631 28.189 21.0895 30.3294 23.3703 30.1472C21.6673 29.115 20.6638 27.6577 20.755 25.6388C20.8311 23.6351 21.8954 22.2233 23.644 21.2822C19.934 21.7224 16.7409 23.2404 13.9431 25.7602ZM23.2639 25.7906C23.2639 27.1112 24.3434 28.2042 25.6511 28.2194C26.9739 28.2346 28.1295 27.0809 28.0991 25.7602C28.0687 24.4548 26.9739 23.377 25.6511 23.377C24.3282 23.3922 23.2639 24.4548 23.2639 25.7906Z" fill="#F2BA5B"/>
<path d="M17.197 16.0603C17.197 15.2861 17.197 14.5271 17.197 13.7378C22.8381 13.7378 28.464 13.7378 34.1204 13.7378C34.1204 14.512 34.1204 15.2558 34.1204 16.0603C28.4945 16.0603 22.8685 16.0603 17.197 16.0603Z" fill="#F2BA5B"/>
<path d="M34.1204 35.5361C34.1204 36.3406 34.1204 37.0996 34.1204 37.889C28.4792 37.889 22.8685 37.889 17.2122 37.889C17.2122 37.1148 17.2122 36.3406 17.2122 35.5361C22.8381 35.5361 28.4488 35.5361 34.1204 35.5361Z" fill="#F2BA5B"/>
</svg>
