<svg width="79" height="66" viewBox="0 0 79 66" fill="none" xmlns="http://www.w3.org/2000/svg">
<g clip-path="url(#clip0_1_824)">
<path d="M-1.31279e-05 47.0193C0.281376 45.7833 0.527591 44.5297 0.879328 43.2937C2.30386 38.2087 5.1881 34.1124 9.39135 30.9342C9.90137 30.5457 10.4114 30.1926 11.0621 29.7159C8.74064 27.244 7.01713 24.5249 6.26089 21.2408C4.48463 13.4719 7.93164 5.70305 14.8433 2.01284C21.8076 -1.69502 30.3373 -0.194219 35.6661 5.72071C37.583 7.83949 41.3642 7.85715 43.2636 5.73837C49.5421 -1.28892 60.2876 -1.92456 67.3751 4.32585C74.3746 10.4703 75.1133 21.2584 69.0458 28.374C68.7117 28.7801 68.36 29.1685 67.9203 29.6806C68.3072 29.9807 68.6413 30.2632 69.0107 30.5281C75.1309 34.9599 78.4724 40.9631 78.8769 48.5024C79.0527 51.8925 78.912 55.3178 78.912 58.9021C73.4953 58.9021 68.0786 58.9021 62.4684 58.9021C62.4684 61.3387 62.4684 63.5811 62.4684 66C47.0975 66 31.9377 66 16.5844 66C16.5844 63.7576 16.5844 61.4976 16.5844 59.008C10.9214 59.008 5.4519 59.008 -0.0351868 59.008C-1.31279e-05 55 -1.31279e-05 51.0096 -1.31279e-05 47.0193ZM58.2124 61.886C58.2124 59.9615 58.2827 58.1429 58.1948 56.3419C57.8606 49.244 54.6774 43.8234 48.522 40.2745C47.9944 39.9743 47.0623 39.939 46.482 40.1685C41.8214 42.0931 37.1961 42.0931 32.518 40.2039C31.9025 39.9567 30.9 39.992 30.3372 40.3274C22.2649 45.0064 19.7852 52.9342 20.9986 61.886C33.3446 61.886 45.7081 61.886 58.2124 61.886ZM39.4296 11.4238C32.2894 11.4414 26.4857 17.2681 26.5033 24.4013C26.5209 31.5169 32.3773 37.4141 39.4296 37.4318C46.5875 37.4494 52.5142 31.4639 52.4439 24.313C52.3911 17.1445 46.5875 11.4238 39.4296 11.4238ZM32.4301 8.54575C28.6137 3.9374 21.579 2.86036 16.3381 6.02087C10.6576 9.44623 8.42407 16.3146 11.0093 22.3708C13.1198 27.3323 18.9938 30.9872 23.1091 29.9278C20.8931 20.4639 23.8653 13.2777 32.4301 8.54575ZM55.8381 30.069C61.7649 30.3868 67.1816 26.2199 68.6589 20.3226C70.1362 14.3724 67.1113 8.05137 61.5011 5.42055C56.3833 3.01926 49.6828 4.41413 46.6051 8.54575C54.8357 12.9069 58.2475 20.9053 55.8381 30.069ZM27.4706 36.9727C26.3978 34.9246 24.9381 34.2536 22.6518 34.2889C20.5062 34.3242 18.3079 33.6356 16.215 33C15.1598 32.6822 14.4036 32.7175 13.4715 33.2649C6.41918 37.3788 3.00733 45.3419 4.39669 54.6645C8.44166 54.6645 12.4866 54.6645 16.514 54.6645C18.9762 44.7239 20.4007 42.4109 27.4706 36.9727ZM74.744 54.6998C74.744 52.634 74.8319 50.7624 74.7264 48.8909C74.3746 41.9165 71.1739 36.6549 65.1767 33.1413C64.5964 32.8058 63.6819 32.8587 62.9608 33C60.6921 33.4061 58.4234 34.3419 56.1723 34.2889C53.8157 34.2183 52.5142 35.1364 51.459 37.0257C57.843 41.2103 61.4835 47.1252 62.3453 54.7175C66.5133 54.6998 70.5231 54.6998 74.744 54.6998Z" fill="#F2BA5B"/>
</g>
<defs>
<clipPath id="clip0_1_824">
<rect width="79" height="66" fill="white"/>
</clipPath>
</defs>
</svg>
