<svg width="69" height="76" viewBox="0 0 69 76" fill="none" xmlns="http://www.w3.org/2000/svg">
<path d="M0 40.2575C2.04151 35.2339 4.08301 30.2102 6.09712 25.1866C7.05622 22.7839 7.97421 20.3813 8.94701 17.9787C10.3034 14.5932 12.7697 12.409 16.291 11.467C16.6883 12.0267 17.0993 12.6137 17.6611 13.4055C13.1259 14.2519 11.4955 17.6238 10.0842 21.3642C7.72758 27.6301 5.16542 33.8278 2.68547 40.0528C2.0141 41.7455 2.17852 42.1005 3.9186 42.7557C7.68648 44.1618 11.4407 45.5679 15.2085 46.9603C16.9075 47.5883 17.3323 47.4108 17.9899 45.759C18.7161 43.957 19.4286 42.1414 20.1821 40.2302C20.922 40.5442 21.5797 40.8309 22.3881 41.1722C21.3331 43.6294 20.3055 45.9228 19.3738 48.2572C19.0723 49.0216 18.9216 49.868 18.8668 50.7007C18.3873 57.2807 17.9351 63.8606 17.483 70.4541C17.2501 73.7987 15.8388 75.0136 12.3176 74.7133C12.7834 73.6895 12.9478 72.5974 14.3591 72.2424C14.7701 72.1332 15.0852 71.0275 15.14 70.3586C15.5374 65.5124 15.8525 60.6662 16.195 55.82C16.3321 53.8269 16.4691 51.8338 16.6061 49.868C15.1263 49.3766 13.7836 48.9261 12.2627 48.421C12.112 50.5096 11.9613 52.4891 11.8517 54.4548C11.5914 59.301 11.3722 64.1609 11.1255 69.0071C11.0981 69.5804 11.0707 70.1674 11.0022 70.7408C10.6049 74.2765 7.60427 75.9556 4.31594 74.4676C2.9184 73.8396 2.31554 72.6656 2.21963 71.1776C1.57566 62.2224 0.917993 53.2808 0.260326 44.3256C0.232924 43.9161 0.0959097 43.5065 0 43.097C0 42.1551 0 41.2131 0 40.2575ZM2.71288 44.8034C2.65807 45.1583 2.58956 45.3085 2.60326 45.4587C3.23353 53.9224 3.86379 62.3862 4.48036 70.85C4.57626 72.1332 5.27504 72.5428 6.48076 72.5428C7.67278 72.5428 8.57707 72.3516 8.63188 70.8773C8.74149 68.502 8.93331 66.1403 9.05662 63.7787C9.33065 58.7277 9.60468 53.6767 9.8239 48.6121C9.8376 48.1753 9.64578 47.4381 9.34435 47.3152C7.19323 46.4143 4.9736 45.6361 2.71288 44.8034Z" fill="#F2BA5B"/>
<path d="M44.8583 0C47.6671 1.0375 49.832 2.67565 50.3526 5.87004C50.9555 9.52858 48.6536 12.9823 44.9954 13.8424C41.4193 14.6751 37.6514 12.4636 36.6786 8.95522C35.6647 5.32399 37.7062 1.50164 41.2686 0.354933C41.6111 0.245723 41.9674 0.122861 42.3099 0.0136513C43.1594 0 44.0089 0 44.8583 0ZM48.1193 6.97579C48.1056 4.43666 46.0093 2.32071 43.4882 2.29341C40.9123 2.25246 38.7749 4.42301 38.7886 7.0577C38.8023 9.62414 40.8575 11.6991 43.406 11.7264C46.0093 11.7401 48.1467 9.59683 48.1193 6.97579Z" fill="#F2BA5B"/>
<path d="M25.7723 0C28.8551 0.87368 31.061 2.62104 31.5543 5.95195C32.116 9.63779 29.869 12.9414 26.2519 13.8151C22.7854 14.6614 19.2093 12.6957 18.0036 9.2965C16.7842 5.85639 18.4147 2.14325 21.8126 0.614307C22.2785 0.409538 22.7443 0.204769 23.2238 0C24.0733 0 24.9228 0 25.7723 0ZM29.3073 7.00309C29.2936 4.43666 27.2521 2.33436 24.7173 2.29341C22.1414 2.23881 19.9766 4.40936 19.9766 7.0304C19.9766 9.58318 22.0455 11.6855 24.5803 11.7264C27.1835 11.7537 29.321 9.62414 29.3073 7.00309Z" fill="#F2BA5B"/>
<path d="M45.7489 41.1449C46.4614 40.8446 47.078 40.5852 47.8726 40.2439C48.6125 42.1141 49.3387 43.9434 50.0786 45.7727C50.7499 47.4245 51.1473 47.5883 52.86 46.9603C56.6826 45.5543 60.4779 44.1072 64.3143 42.7285C65.6159 42.2507 66.027 41.5681 65.4789 40.203C62.6016 33.0634 59.7929 25.8965 56.9293 18.7569C55.7921 15.9174 53.6683 14.1427 50.4759 13.4056C50.9555 12.6957 51.3665 12.0677 51.8187 11.4125C55.1755 12.3544 57.6006 14.3065 58.8749 17.4054C61.8892 24.7634 64.9583 32.1214 67.6027 39.6296C68.3562 41.7729 67.8767 44.4076 67.7123 46.8102C67.1642 54.8098 66.4928 62.8095 65.9037 70.8091C65.7119 73.4574 64.4787 74.768 62.0125 74.8362C58.7104 74.9181 57.354 73.9489 57.1622 71.0002C56.6963 64.0517 56.3675 57.0896 55.9839 50.1411C55.9565 49.636 55.9154 49.1172 55.8743 48.4483C54.3671 48.9534 52.9833 49.4312 51.5035 49.9227C51.7638 53.7723 52.0242 57.6083 52.2845 61.4443C52.49 64.4476 52.7229 67.4509 52.9422 70.4405C53.0244 71.5599 53.2436 72.4063 54.6822 72.652C55.2714 72.7612 55.6687 73.8806 56.2442 74.6587C52.3804 75.1502 50.8458 73.9216 50.6129 70.4542C50.1608 63.8196 49.7223 57.1851 49.2154 50.5506C49.1469 49.595 48.7221 48.6531 48.3796 47.7385C47.5438 45.5543 46.6669 43.4247 45.7489 41.1449ZM65.4926 44.7625C63.41 45.527 61.5192 46.3051 59.5736 46.9194C58.4501 47.2743 58.135 47.8477 58.2035 48.9671C58.6419 56.1203 59.053 63.2736 59.4092 70.4405C59.4777 71.9831 60.0395 72.6111 61.6151 72.5701C63.1771 72.5291 63.5333 71.7374 63.6292 70.3722C63.9718 65.1165 64.4239 59.8608 64.8076 54.605C65.0542 51.3834 65.2597 48.189 65.4926 44.7625Z" fill="#F2BA5B"/>
<path d="M35.788 42.6056C33.7465 42.5919 32.1846 41.377 31.8283 39.6979C31.4173 37.8413 32.2257 36.053 33.9932 35.2066C37.761 33.4046 41.5426 31.6163 45.3653 29.9372C46.5573 29.4185 47.2561 28.8178 47.2424 27.439C47.2287 26.6063 47.4205 25.5688 48.6262 25.7872C49.7361 25.9784 49.5442 26.9203 49.5716 27.8076C49.6401 30.0737 48.4344 31.1522 46.4751 31.9986C42.7758 33.5685 39.186 35.3841 35.5414 37.0632C34.4453 37.5683 33.6506 38.2235 34.2535 39.4795C34.8426 40.6944 35.8565 40.3668 36.8568 39.9299C41.6111 37.8686 46.3518 35.7936 51.1199 33.7732C52.1064 33.35 52.6133 32.7494 52.8189 31.7119C53.1614 29.9509 53.5313 28.1899 54.0657 26.4835C54.2301 25.9647 54.9974 25.6371 55.4906 25.2275C55.751 25.8282 56.2853 26.4835 56.2031 27.0295C55.8743 28.9953 55.5043 31.002 54.8193 32.8586C54.4356 33.8961 53.5999 35.0837 52.6408 35.5206C47.5164 37.9096 42.2962 40.0801 37.0897 42.3053C36.5964 42.4964 36.0621 42.5373 35.788 42.6056Z" fill="#F2BA5B"/>
<path d="M29.9101 41.8411C24.9365 39.6842 20.1137 37.6775 15.3867 35.466C14.4824 35.0428 13.6603 33.9097 13.3041 32.9268C12.619 31.002 12.2216 28.968 11.8928 26.9476C11.8106 26.4152 12.3861 25.7736 12.6601 25.1866C13.1396 25.6234 13.8795 25.9647 14.0439 26.4971C14.5646 28.1489 14.9482 29.8553 15.2497 31.5617C15.4552 32.7494 16.058 33.3773 17.1404 33.8278C20.4562 35.193 23.7308 36.6536 27.0329 38.0597C29.2799 39.029 29.2799 39.029 29.9101 41.8411Z" fill="#F2BA5B"/>
<path d="M31.4173 33.9507C30.9103 34.6332 30.4719 35.2066 30.006 35.8209C26.7725 34.3192 23.5527 32.8449 20.3466 31.3296C19.0312 30.7153 17.9762 27.8759 18.5791 26.5517C18.7435 26.1967 19.3053 25.7463 19.6204 25.7872C20.0314 25.8418 20.7165 26.3879 20.6891 26.6472C20.4014 29.3911 22.5936 29.8143 24.3337 30.6334C26.6629 31.7528 29.0195 32.8313 31.4173 33.9507Z" fill="#F2BA5B"/>
<path d="M26.9506 29.241C26.2656 28.927 25.7038 28.6676 24.9502 28.3127C26.5944 24.4221 28.4852 20.5315 25.142 16.4634C26.1148 16.2586 26.8273 16.1221 27.5946 15.9583C30.6226 20.4905 29.1566 24.7907 26.9506 29.241Z" fill="#F2BA5B"/>
<path d="M43.1868 28.299C42.3784 28.6676 41.7755 28.927 41.1864 29.2C38.2269 24.0808 37.9939 19.7124 40.515 15.9856C41.2275 16.1221 41.9674 16.2723 42.9539 16.4634C39.6929 20.4905 41.4056 24.3129 43.1868 28.299Z" fill="#F2BA5B"/>
</svg>
