<svg width="90" height="63" viewBox="0 0 90 63" fill="none" xmlns="http://www.w3.org/2000/svg">
<path d="M17.0842 38.0595C18.8387 35.8577 20.9441 34.2527 23.5449 35.5285C25.5678 36.5162 27.3223 37.1952 29.6548 36.9895C31.595 36.8249 33.0399 38.327 33.8656 40.2613C34.2165 41.0638 35.0215 41.6811 35.6614 42.3602C36.5696 43.3479 37.8906 44.1916 38.3241 45.3439C38.7782 46.5992 39.2323 47.3811 40.4708 47.9573C42.5349 48.9244 43.2986 50.7764 43.1335 52.9988C43.1129 53.2868 42.9064 53.5544 42.9271 53.8424C42.989 55.3034 49.1814 58.6987 50.4199 57.9785C51.679 57.2583 51.7822 55.7356 50.5024 54.7478C49.0163 53.5749 47.4269 52.5461 45.8581 51.476C44.7435 50.7147 43.8353 49.7681 44.7848 48.4306C45.7549 47.0519 46.9315 47.7103 48.0255 48.4511C50.7501 50.2825 53.4748 52.0933 56.1994 53.9042C57.4379 54.7478 58.7176 55.0154 59.6465 53.6367C60.5341 52.2785 59.6052 51.3526 58.47 50.6118C56.1581 49.089 53.867 47.5457 51.5345 46.0436C50.4405 45.3439 49.6355 44.4797 50.4611 43.1833C51.2868 41.8869 52.4014 42.2367 53.4954 42.9569C56.7361 45.0559 59.9974 47.1342 63.2174 49.2331C64.4353 50.0356 65.6738 50.5295 66.6439 49.089C67.6347 47.628 66.6026 46.6609 65.4261 45.8995C62.5363 44.0681 59.6259 42.2779 56.7361 40.4259C55.5802 39.6645 53.7431 39.0266 54.8784 37.1541C56.0136 35.3021 57.3966 36.5573 58.6144 37.2981C60.596 38.5328 62.5569 39.788 64.5385 41.0227C65.715 41.7635 66.9329 41.9898 67.7792 40.6523C68.5635 39.4176 67.903 38.4299 66.7884 37.7303C60.018 33.4913 53.2271 29.2729 46.3742 24.9928C45.693 25.7953 45.1151 26.5361 44.4958 27.2152C41.9157 29.9725 37.6429 30.6928 34.4848 28.9025C32.8954 28.0177 32.2762 26.9271 33.4321 25.1986C35.5582 22.0296 37.5191 18.6961 39.6864 15.5271C40.3676 14.5394 41.3377 13.4488 42.4111 13.099C47.9016 11.2264 53.4748 9.53909 59.0479 7.89289C59.9768 7.62538 61.0707 7.85173 62.1647 7.85173C63.5477 3.32468 67.9856 2.33697 71.3501 0.0734403C71.7629 -0.194067 73.2904 0.32037 73.4555 0.793653C73.6826 1.47271 73.4142 2.74852 72.8982 3.16006C71.2469 4.45645 69.4098 5.54705 67.5727 6.57593C65.9834 7.46076 65.8389 8.4279 66.7884 9.93006C70.5244 15.7329 74.2192 21.5769 77.8521 27.4621C78.7397 28.9025 79.6685 29.1289 81.0515 28.2029C82.6821 27.1123 84.3954 26.1246 86.0467 25.0751C87.0787 24.4372 88.1314 24.1491 88.9364 25.322C89.7415 26.4744 89.1841 27.4004 88.1314 28.0588C85.9847 29.417 83.9619 31.3512 81.5882 31.9274C78.8429 32.627 76.5517 33.3267 75.1068 35.9194C74.921 36.2693 73.311 36.2898 72.8569 35.8989C72.4234 35.5285 72.217 34.0263 72.5679 33.6971C75.7054 30.7133 74.1986 28.2235 72.217 25.3838C69.4717 21.4535 67.1393 17.2351 64.4972 13.243C63.9812 12.4611 62.8665 11.7203 61.9583 11.6586C60.1832 11.5145 58.2842 11.5968 56.571 12.0701C53 13.0373 49.4704 14.2719 45.982 15.5271C44.8674 15.9387 43.5876 16.556 42.9271 17.4614C40.9662 20.1365 39.2529 22.9968 37.3127 26.0011C39.6864 26.5155 41.1726 25.6513 42.4111 24.0668C45.4866 20.1777 45.5072 20.1571 49.7593 22.8116C56.0136 26.7007 62.2473 30.5899 68.4603 34.5202C72.2789 36.9277 72.795 39.9938 70.1942 43.6977C69.8846 44.1299 69.8639 45.0147 70.0703 45.5497C71.701 49.8298 69.4924 53.3692 64.9307 53.719C64.394 53.7601 63.6509 54.0276 63.4032 54.4392C60.9469 58.2872 59.7084 58.8222 55.1054 57.8345C52.0918 62.6496 49.491 63.1846 44.7229 60.0363C43.4638 59.1926 42.1634 58.4312 40.801 57.5875C40.1199 58.4518 39.5626 59.2132 38.9433 59.8922C36.8792 62.1558 33.8656 62.2175 31.5125 60.2626C30.8519 59.707 29.8405 59.5424 28.953 59.3161C28.1892 59.1103 27.0127 59.3572 26.6618 58.9045C24.4944 56.1883 20.1598 57.7522 18.4672 55.0154C16.9397 52.5461 15.5155 50.0973 13.6991 47.7721C12.1716 45.8378 13.3482 43.4508 14.8756 41.4548C13.988 40.1378 13.1624 38.8003 12.1923 37.5451C11.9033 37.1747 11.2221 36.7837 10.8299 36.8866C8.51811 37.4422 6.70168 36.4956 4.92653 35.2404C3.85319 34.4996 2.71792 33.8205 1.60329 33.1415C0.468021 32.4418 -0.171858 31.5159 0.674433 30.2606C1.4588 29.0671 2.49086 29.3552 3.52293 30.0343C4.98846 30.9808 6.51591 31.8245 7.98144 32.8122C9.21991 33.6353 10.0868 33.4707 10.8712 32.1949C14.6486 26.1451 18.4466 20.1159 22.2652 14.1073C22.9876 12.955 22.8844 12.0907 21.6666 11.3911C20.3456 10.6091 19.0658 9.78602 17.786 8.94234C16.6714 8.20155 14.9995 7.56365 16.0728 5.79398C17.1255 4.06547 18.4878 5.03262 19.6231 5.81456C22.0794 7.52249 25.2169 8.4279 26.4347 11.6586C26.5999 12.1113 28.1479 12.0907 29.0562 12.2142C30.5011 12.3994 32.6065 11.9055 32.5445 14.1279C32.4826 16.5149 30.2946 16.0622 28.8291 15.8152C26.3728 15.3831 25.0105 16.2885 23.7926 18.3874C21.2125 22.8527 18.4466 27.2357 15.5568 31.4953C14.3389 33.3061 14.2564 34.7054 15.7219 36.2693C16.1967 36.7425 16.5682 37.3599 17.0842 38.0595ZM22.4303 53.1017C22.5954 53.0193 23.0083 52.9165 23.194 52.6695C25.5884 49.3154 27.9828 45.9613 30.2534 42.5248C30.4804 42.1956 30.0469 41.1255 29.6135 40.7757C29.3039 40.5288 28.2099 40.6934 27.9415 41.0227C25.5678 44.2122 23.256 47.4428 21.0474 50.7558C20.3043 51.8876 21.068 53.1428 22.4303 53.1017ZM27.9415 56.1265C28.953 55.5092 29.4896 55.3446 29.758 54.9948C31.4712 52.6489 33.1844 50.3031 34.7532 47.875C35.0215 47.4634 34.7532 46.1876 34.4435 46.0436C33.8656 45.8172 32.7303 45.8789 32.4 46.2905C30.6249 48.5746 28.9323 50.941 27.4255 53.4103C27.0952 53.9248 27.6732 54.9742 27.9415 56.1265ZM22.678 38.718C21.7904 38.9649 21.3983 38.9443 21.2538 39.1295C19.747 41.1667 18.2401 43.2039 16.8778 45.3234C16.7127 45.5909 17.2287 46.6403 17.6415 46.8461C18.0544 47.0519 19.0245 46.8461 19.3341 46.4757C20.6965 44.7678 22.0175 43.0187 23.0908 41.1461C23.4211 40.6317 22.8638 39.6028 22.678 38.718ZM39.769 52.6284C39.2736 51.9905 39.0259 51.3114 38.6131 51.2085C38.097 51.0645 37.2095 51.1879 36.9205 51.5378C35.8059 52.8547 34.8151 54.2746 33.9275 55.7561C33.6798 56.1677 33.8449 57.0525 34.1546 57.4641C34.4022 57.7727 35.4756 57.9374 35.682 57.711C37.065 56.106 38.3447 54.398 39.769 52.6284Z" fill="#F2BA5B"/>
</svg>
