<svg width="88" height="62" viewBox="0 0 88 62" fill="none" xmlns="http://www.w3.org/2000/svg">
<g clip-path="url(#clip0_1_837)">
<path d="M0 30.4808C0.48125 29.7425 1.16875 29.4656 2.01667 29.5117C2.77292 29.5579 3.55208 29.4887 4.33125 29.5348C5.27083 29.581 5.82083 30.1347 5.84375 30.9654C5.86667 31.8191 5.29375 32.4421 4.33125 32.4652C3.39167 32.5114 2.42917 32.5806 1.5125 32.4421C0.9625 32.3498 0.504167 31.8422 0 31.5192C0 31.1731 0 30.827 0 30.4808Z" fill="#F2BA5B"/>
<path d="M0 11.2832C0.48125 10.5448 1.16875 10.268 2.03958 10.3372C2.79583 10.3833 3.575 10.3372 4.35417 10.3602C5.27083 10.4064 5.84375 10.9602 5.86667 11.7908C5.88958 12.6215 5.33958 13.2445 4.42292 13.2907C3.4375 13.3368 2.40625 13.406 1.44375 13.2676C0.916667 13.1522 0.48125 12.6446 0 12.3215C0 11.9754 0 11.6293 0 11.2832Z" fill="#F2BA5B"/>
<path d="M0 51.2475C0.4125 50.4399 1.07708 50.1399 1.97083 50.1861C2.77292 50.2322 3.575 50.1861 4.37708 50.2092C5.27083 50.2322 5.86667 50.8322 5.86667 51.6628C5.86667 52.4935 5.27083 53.0934 4.4 53.1396C3.4375 53.1626 2.42917 53.2549 1.48958 53.0934C0.9625 53.0011 0.504167 52.4473 0.0229167 52.1012C0 51.8243 0 51.5475 0 51.2475Z" fill="#F2BA5B"/>
<path d="M33.0917 45.7559C30.1354 45.7559 27.3625 45.7559 24.5896 45.7559C24.1542 45.7559 23.7188 45.779 23.3063 45.7328C22.55 45.6636 22.0229 45.0867 22.0229 44.3714C22 43.61 22.3896 43.1254 23.1 42.8947C23.2604 42.8485 23.4438 42.8255 23.6042 42.8255C27.8896 42.8255 32.1979 42.8255 36.4833 42.8255C36.8042 42.8255 37.2854 42.8947 37.4229 43.1024C37.7438 43.5177 38.1104 44.1176 38.0188 44.5791C37.9271 45.0175 37.3542 45.3867 36.9188 45.7097C36.7583 45.8482 36.4146 45.779 36.0938 45.802C35.9104 46.7019 35.7042 47.6018 35.5667 48.5017C35.5438 48.7324 35.7271 49.0324 35.8875 49.217C36.9417 50.3245 37.9958 51.409 39.1188 52.4474C39.3479 52.655 39.8292 52.8396 40.0813 52.7242C42.6938 51.7551 45.1229 52.2166 47.4604 53.5318C47.7354 53.6934 48.0333 53.8087 48.3313 53.901C50.875 54.6163 52.8229 56.0469 53.9917 58.4928C54.1292 58.7696 54.6104 59.0004 54.9313 59.0235C56.4208 59.0696 57.9104 59.0696 59.4 59.0235C59.7208 59.0004 60.225 58.7927 60.3396 58.5389C61.5083 56.0008 63.5479 54.6163 66.1375 53.8549C67.1458 53.5549 68.1313 53.1165 69.0708 52.632C70.125 52.0782 71.225 51.9167 72.3021 52.3551C74.2042 53.1396 75.6021 52.6089 76.7708 50.9937C77.3667 50.163 78.4896 49.5862 78.7646 48.6863C79.0167 47.8325 78.5125 46.725 78.2833 45.7559C78.0771 44.9252 78.1688 44.1868 78.5125 43.4023C79.3604 41.418 80.1854 39.4336 80.9646 37.4261C81.2625 36.6416 81.7208 36.0417 82.4542 35.6033C83.325 35.0726 84.4938 34.6342 84.9292 33.8035C85.3646 32.9959 84.9521 31.773 85.1125 30.7577C85.4104 28.7964 84.7688 27.4581 82.9354 26.6736C81.7667 26.1891 81.1938 25.22 80.7583 24.0432C80.0708 22.1742 79.2917 20.3513 78.5125 18.5285C78.1917 17.767 78.1229 17.0518 78.3063 16.2672C78.5354 15.252 79.0396 14.1444 78.7875 13.2445C78.5583 12.3908 77.4125 11.837 76.8396 11.0294C75.6479 9.36809 74.2042 8.88353 72.2792 9.66805C71.225 10.1065 70.1708 9.87572 69.1396 9.39116C67.3292 8.5605 65.45 7.82213 63.5938 7.08376C62.8146 6.78379 62.2188 6.32231 61.7833 5.58394C61.2563 4.70713 60.8208 3.53035 59.9958 3.11502C59.1938 2.67661 57.9792 3.09194 56.9708 2.9535C55.0229 2.65354 53.7167 3.32268 52.9146 5.14553C52.4333 6.27616 51.5167 6.87609 50.3708 7.29142C48.6521 7.91442 46.9563 8.62972 45.3063 9.39116C44.2521 9.87572 43.2208 10.1065 42.1667 9.66805C40.3104 8.92968 38.8438 9.32194 37.675 10.9833C37.1938 11.6524 36.5063 12.1601 35.9333 12.783C35.75 12.9907 35.5667 13.3368 35.5896 13.5906C35.7042 14.4675 35.9104 15.3443 36.0938 16.2211C36.3229 16.2442 36.4833 16.2442 36.6667 16.2672C37.5604 16.3595 38.1563 16.9595 38.1333 17.767C38.1104 18.5516 37.4917 19.1746 36.5979 19.2207C35.3604 19.2669 34.1458 19.2438 32.9083 19.2438C29.9979 19.2438 27.0646 19.2438 24.1542 19.2438C23.925 19.2438 23.6958 19.2669 23.4667 19.2438C22.5729 19.1515 22 18.5285 22.0229 17.7209C22.0458 16.8902 22.6417 16.3134 23.5583 16.3134C26.0792 16.2903 28.6 16.3134 31.1208 16.3134C31.7396 16.3134 32.3583 16.3134 33.0917 16.3134C32.9542 15.6442 32.8854 15.0674 32.7479 14.5136C32.3813 13.0369 32.7021 11.8139 33.825 10.7525C34.9938 9.64498 36.1167 8.49127 37.2396 7.33757C38.1333 6.41461 39.2792 5.99928 40.4479 6.39153C42.6021 7.1299 44.5729 6.82994 46.4979 5.74546C46.5896 5.69931 46.7042 5.65316 46.8188 5.60702C49.0417 4.98402 50.7375 3.76109 51.7688 1.6152C52.3188 0.507649 53.3958 0.0461683 54.6333 0.0692423C56.3521 0.0923164 58.0708 0.0923164 59.7896 0.0692423C61.05 0.0692423 62.1042 0.530723 62.6542 1.63828C63.6854 3.71494 65.2896 4.96094 67.4667 5.53779C67.6042 5.58394 67.7417 5.63009 67.8563 5.69931C69.8042 6.80687 71.7979 7.1299 73.9979 6.36846C75.1896 5.95313 76.3125 6.39153 77.2063 7.33757C78.3979 8.5605 79.5896 9.73727 80.7813 10.9602C81.675 11.8601 82.0875 12.9676 81.6979 14.1906C81.0333 16.2442 81.1479 18.1824 82.2708 20.0514C82.3396 20.1437 82.3625 20.259 82.3854 20.3744C83.05 22.6818 84.2417 24.5508 86.5104 25.6584C87.5646 26.166 87.9771 27.2274 87.9771 28.4042C87.9771 30.1578 87.9771 31.9114 87.9771 33.6881C87.9771 34.9111 87.4729 35.8571 86.4646 36.5263C86.4417 36.5493 86.4188 36.5724 86.3959 36.5724C84.2646 37.5415 83.0729 39.2721 82.4771 41.4872C82.4313 41.6487 82.3625 41.8102 82.2938 41.9717C81.1708 43.8869 81.0104 45.8713 81.6979 47.9941C82.0646 49.1478 81.6979 50.2322 80.85 51.086C79.6125 52.3551 78.3521 53.6241 77.0917 54.8701C76.1979 55.77 75.075 56.1161 73.9292 55.7239C71.8438 55.0317 69.9188 55.2162 68.0396 56.3238C67.925 56.393 67.7875 56.4392 67.65 56.4853C65.4271 57.1314 63.6625 58.3082 62.6083 60.5002C62.0813 61.5847 61.0271 62.0462 59.8125 62.0231C58.0708 62.0231 56.3292 62.0231 54.5646 62.0231C53.35 62.0231 52.4333 61.4924 51.7458 60.5002C51.7229 60.4771 51.7229 60.4541 51.7 60.431C50.7604 58.3082 49.0646 57.1314 46.9104 56.5315C46.8188 56.5084 46.75 56.4853 46.6583 56.4392C44.6646 55.3316 42.625 54.9163 40.3563 55.7008C39.1875 56.1161 38.0646 55.6547 37.1708 54.7086C36.0479 53.5549 34.925 52.4012 33.7563 51.2937C32.6792 50.2784 32.3813 49.0785 32.7021 47.671C32.8396 47.0711 32.9542 46.4943 33.0917 45.7559Z" fill="#F2BA5B"/>
<path d="M57.2458 11.7908C67.7646 11.8139 76.3125 20.4667 76.2896 31.0346C76.2667 41.6256 67.6729 50.2322 57.1771 50.1861C46.6354 50.163 38.1104 41.4871 38.1563 30.85C38.2021 20.3282 46.75 11.7677 57.2458 11.7908ZM57.1771 14.7443C48.3083 14.7443 41.0667 22.0588 41.0667 30.9884C41.0667 39.9412 48.2854 47.2326 57.1771 47.2326C66.0917 47.2326 73.3792 39.895 73.3563 30.9423C73.3104 22.0126 66.0688 14.7443 57.1771 14.7443Z" fill="#F2BA5B"/>
<path d="M21.3125 29.5117C24.8417 29.5117 28.3479 29.5117 31.8771 29.5117C33.0458 29.5117 33.6646 29.9963 33.7104 30.8962C33.7563 31.6576 33.3208 32.2575 32.5875 32.396C32.2438 32.4652 31.9 32.4652 31.5563 32.4652C24.7271 32.4652 17.875 32.4652 11.0458 32.4652C9.53334 32.4652 8.77709 31.9576 8.80001 30.9423C8.82292 29.9501 9.53334 29.4886 11.0229 29.4886C14.4604 29.5117 17.875 29.5117 21.3125 29.5117Z" fill="#F2BA5B"/>
<path d="M18.9979 53.1626C16.1334 53.1626 13.2688 53.1857 10.4271 53.1626C9.18961 53.1626 8.41044 52.032 8.98336 51.0859C9.23544 50.6706 9.87711 50.2553 10.3354 50.2553C16.1334 50.2091 21.9542 50.2091 27.7521 50.2322C28.6917 50.2322 29.3334 50.8783 29.3334 51.7089C29.3334 52.5396 28.6917 53.1626 27.7521 53.1857C24.8417 53.1626 21.9084 53.1626 18.9979 53.1626Z" fill="#F2BA5B"/>
<path d="M24.9104 26.5582C22.1834 26.5582 19.4792 26.5582 16.7521 26.5582C16.4771 26.5582 16.1792 26.5582 15.9042 26.5121C15.1479 26.3967 14.7354 25.8891 14.6896 25.1507C14.6438 24.4585 14.9875 23.9047 15.675 23.697C16.0188 23.6047 16.4083 23.5817 16.775 23.5817C22.2063 23.5817 27.6375 23.5817 33.0688 23.5817C33.2292 23.5817 33.4125 23.5817 33.5729 23.5817C34.5583 23.6509 35.2229 24.2739 35.1771 25.1276C35.1542 25.9583 34.5125 26.5351 33.55 26.5351C30.6854 26.5582 27.7979 26.5582 24.9104 26.5582Z" fill="#F2BA5B"/>
<path d="M24.9792 35.4418C27.8208 35.4418 30.6396 35.4418 33.4812 35.4418C34.1917 35.4418 34.7875 35.6494 35.0854 36.3647C35.4292 37.1723 35.0167 38.0491 34.1917 38.303C33.8708 38.3953 33.5271 38.4183 33.1833 38.4183C27.6833 38.4183 22.2062 38.4183 16.7062 38.4183C16.5458 38.4183 16.3625 38.4183 16.2021 38.4183C15.3083 38.326 14.7125 37.7492 14.6896 36.9416C14.6896 36.1109 15.3083 35.4879 16.2479 35.4879C19.1583 35.4418 22.0687 35.4418 24.9792 35.4418Z" fill="#F2BA5B"/>
<path d="M19.0667 10.3372C21.9542 10.3372 24.8417 10.3141 27.7292 10.3372C28.6917 10.3372 29.3104 10.9371 29.3333 11.7678C29.3563 12.5984 28.7375 13.1983 27.775 13.2676C27.5458 13.2906 27.3167 13.2676 27.0875 13.2676C24.7729 13.2676 22.4583 13.2676 20.1438 13.2676C17.0729 13.2676 14.025 13.2676 10.9542 13.2676C10.6104 13.2676 10.2667 13.2676 9.92292 13.1983C9.18959 13.0368 8.82292 12.5061 8.80001 11.7678C8.77709 11.0525 9.32709 10.4756 10.0604 10.3602C10.3354 10.3141 10.6333 10.3141 10.9083 10.3141C13.6354 10.3372 16.3396 10.3372 19.0667 10.3372Z" fill="#F2BA5B"/>
<path d="M16.1562 16.2672C16.6604 16.2672 17.1875 16.2441 17.6916 16.2672C18.4937 16.3134 18.9291 16.821 19.0437 17.5824C19.1354 18.2747 18.6771 19.0361 17.9437 19.1053C16.7521 19.1976 15.5375 19.2207 14.3458 19.1284C13.5666 19.0592 13.1083 18.3208 13.2229 17.5594C13.3375 16.7748 13.8187 16.3364 14.5979 16.2903C15.125 16.2441 15.6291 16.2672 16.1562 16.2672Z" fill="#F2BA5B"/>
<path d="M16.1563 45.7328C15.6521 45.7328 15.125 45.7558 14.6208 45.7328C13.8188 45.6866 13.3604 45.2482 13.2458 44.4406C13.1542 43.6792 13.6125 42.9408 14.3917 42.8716C15.5604 42.7793 16.7292 42.7793 17.8979 42.8716C18.6313 42.9177 19.1125 43.633 19.0896 44.3483C19.0667 45.0867 18.5167 45.6866 17.7146 45.7328C17.1875 45.7789 16.6604 45.7328 16.1563 45.7328Z" fill="#F2BA5B"/>
<path d="M8.82294 26.5352C8.27294 26.5352 7.72294 26.5813 7.19586 26.5352C6.43961 26.466 5.91253 25.8891 5.88961 25.1738C5.84378 24.4816 6.32503 23.7432 7.05836 23.6971C8.25003 23.6048 9.46461 23.6048 10.6563 23.7201C11.3896 23.7894 11.825 24.4816 11.7334 25.243C11.6646 26.0045 11.2292 26.466 10.4729 26.5352C9.90003 26.5813 9.35003 26.5352 8.82294 26.5352Z" fill="#F2BA5B"/>
<path d="M8.84583 35.4648C9.39583 35.4648 9.94583 35.4187 10.4729 35.4648C11.2292 35.5571 11.6417 36.0186 11.7104 36.7801C11.7562 37.5415 11.4125 38.1876 10.6792 38.2568C9.44167 38.3722 8.18125 38.3722 6.92083 38.2568C6.1875 38.1876 5.82083 37.5184 5.88958 36.7801C5.93542 36.0417 6.37083 35.5341 7.12708 35.4648C7.7 35.4187 8.27292 35.4648 8.84583 35.4648Z" fill="#F2BA5B"/>
</g>
<defs>
<clipPath id="clip0_1_837">
<rect width="88" height="62" fill="white"/>
</clipPath>
</defs>
</svg>
