<svg width="61" height="59" viewBox="0 0 61 59" fill="none" xmlns="http://www.w3.org/2000/svg">
<g clip-path="url(#clip0_1_790)">
<path d="M2.19754 51.5398C2.19754 50.679 2.19754 49.9617 2.19754 49.2803C2.19754 43.721 2.19754 38.1617 2.19754 32.6024C2.19754 29.5897 1.94943 26.6128 1.41776 23.6C0.389872 17.431 0.815207 11.1903 2.4811 5.12888C2.69377 4.33982 3.04821 3.55077 3.4381 2.83344C4.96221 -0.107592 6.48633 -0.645586 9.49911 0.717332C10.9169 1.36292 13.0081 1.82919 13.5043 2.94104C14.0006 4.05289 12.7955 5.88207 12.2992 7.60365C13.1145 7.96232 14.036 8.42858 14.993 8.85897C18.4666 10.3654 21.9047 11.9076 25.4137 13.3423C26.0163 13.5933 26.9024 13.5575 27.5049 13.2705C31.3684 11.4055 35.1964 13.0912 36.4724 17.2875C36.6142 17.7538 36.8977 18.3277 37.2876 18.507C41.6827 20.4796 46.1487 22.4164 50.7211 24.3891C51.2527 23.1696 51.749 22.1295 52.1389 21.0176C52.6351 19.6906 53.4149 19.6189 54.4782 20.3362C56.1795 21.4839 56.9239 23.2055 57.0656 25.214C57.2429 28.0474 56.4276 30.5939 54.4073 32.5307C53.3085 33.5708 53.025 34.611 53.0959 35.9739C53.1667 37.2292 53.0959 38.4486 53.0959 39.6681C55.6833 40.2061 55.6833 40.2061 55.6833 42.8961C55.6833 45.6936 55.6833 48.4912 55.6833 51.6474C56.8884 51.6474 57.9518 51.6833 59.0505 51.6474C60.362 51.5757 60.9645 52.0061 60.9645 53.4766C61.0709 59.0359 61.1063 59.0359 55.6479 59.0359C37.9256 59.0359 20.2388 59.0359 2.51654 59.0359C0.0708718 59.0359 0.0708719 59 0.0708719 56.5252C0.0708719 55.7362 0.141761 54.983 0.0708719 54.1939C-0.106351 52.6158 0.0708718 51.3605 2.19754 51.5398ZM4.25332 51.6116C8.11677 51.6116 11.6967 51.6474 15.2766 51.5757C15.6665 51.5757 16.1981 50.9301 16.3399 50.4997C19.2109 41.1745 22.1528 31.8134 24.8111 22.4164C25.1301 21.3046 24.4921 19.0091 23.6415 18.5787C19.2463 16.3192 14.6386 14.5258 9.99533 12.5173C9.53456 13.5933 9.21555 14.5617 8.71933 15.4225C4.89132 22.3447 3.57988 29.7331 4.14699 37.6237C4.53688 42.1429 4.25332 46.7337 4.25332 51.6116ZM50.9337 34.862C50.154 34.862 49.5514 34.8979 48.9843 34.862C46.9994 34.7185 46.6095 34.073 47.3893 32.2438C47.7792 31.2754 48.2045 30.307 48.6298 29.231C44.6246 27.5094 40.7612 25.8237 36.6142 24.0304C36.8623 24.9629 37.004 25.5368 37.1813 26.1106C39.5206 33.8219 41.8599 41.4973 44.1993 49.2085C45.0499 51.9702 45.2626 52.1137 48.3817 51.3605C48.3817 48.6705 48.3817 45.9447 48.3817 43.183C48.3817 40.3137 48.3817 40.3137 50.9692 39.6322C50.9337 38.09 50.9337 36.5836 50.9337 34.862ZM28.3201 45.335C25.8745 43.9362 23.6769 42.7167 21.3376 41.3897C20.416 44.4383 19.5654 47.2717 18.5729 50.5356C22.0465 48.6705 25.0238 47.0924 28.3201 45.335ZM39.6269 41.3897C37.2522 42.7167 35.09 43.972 32.6444 45.335C35.9762 47.0924 38.9889 48.7064 42.3916 50.4997C41.3992 47.2 40.5485 44.4024 39.6269 41.3897ZM22.7908 39.8116C25.0947 41.1027 27.1505 42.2863 29.3835 43.5416C29.3835 40.8158 29.3835 38.341 29.3835 35.5793C27.115 37.014 25.0593 38.341 22.7908 39.8116ZM31.581 43.5775C33.9204 42.2505 35.9407 41.1027 38.2092 39.8116C35.8344 38.3052 33.814 37.014 31.581 35.5793C31.581 38.341 31.581 40.7799 31.581 43.5775ZM24.9175 29.6614C26.5125 30.4146 27.8594 31.0961 29.4544 31.8851C29.4544 30.2353 29.4544 28.9082 29.4544 27.5453C29.4544 24.7119 29.4544 24.7119 26.6897 23.7793C26.1226 25.6803 25.5555 27.617 24.9175 29.6614ZM34.133 23.2772C33.1052 24.1739 31.7583 24.7477 31.6519 25.5368C31.3329 27.4736 31.5456 29.5179 31.5456 31.921C33.2469 31.0602 34.6293 30.3787 36.0825 29.6614C35.4445 27.5812 34.8774 25.7161 34.133 23.2772ZM29.3126 51.5398C29.3126 50.0334 29.3126 48.7423 29.3126 47.2C26.6188 48.6347 24.1377 49.9617 21.6566 51.2888C21.7275 51.3964 21.7629 51.4681 21.8338 51.5757C24.2795 51.5398 26.7251 51.5398 29.3126 51.5398ZM39.1662 51.5757C39.2016 51.4681 39.2371 51.3605 39.2725 51.2529C36.7559 49.9258 34.2748 48.5988 31.6874 47.2359C31.6874 48.8857 31.6874 50.2128 31.6874 51.5757C34.2748 51.5757 36.7205 51.5757 39.1662 51.5757ZM22.5427 37.4802C24.6339 36.1173 26.3707 35.0055 28.3556 33.7143C26.8315 32.9611 25.6618 32.3872 24.2795 31.7416C23.7124 33.6426 23.2161 35.3283 22.5427 37.4802ZM38.4573 37.4802C37.7838 35.2924 37.2522 33.5708 36.685 31.7058C35.2673 32.3872 34.0976 32.997 32.6444 33.7143C34.5938 35.0055 36.2952 36.0815 38.4573 37.4802Z" fill="white"/>
</g>
<defs>
<clipPath id="clip0_1_790">
<rect width="61" height="59" fill="white"/>
</clipPath>
</defs>
</svg>
