<svg width="65" height="70" viewBox="0 0 65 70" fill="none" xmlns="http://www.w3.org/2000/svg">
<g clip-path="url(#clip0_1_786)">
<path d="M32.4588 69.9588C42.5507 69.9588 52.6426 69.9588 62.7345 69.9588C64.0114 69.9588 65 69.8765 65 68.1471C64.9588 56.3294 64.9588 44.553 65 32.7353C65 31.5412 64.5881 30.9235 63.3523 30.9647C61.2928 31.0059 59.2332 30.8412 57.1736 31.0059C52.8485 31.3353 50.5418 33.9706 50.5006 38.2941C50.5006 40.9706 50.5418 43.6471 50.4594 46.3235C50.1711 55.3 43.0038 63.2059 34.6008 63.7824C25.3327 64.4412 17.3416 58.3471 15.8587 48.9588C15.2408 45.1294 15.488 41.1765 15.4056 37.2647C15.3232 33.1471 13.3872 31.0882 9.22687 30.9235C6.96134 30.8412 4.69582 31.0059 2.43029 30.8824C0.494297 30.7588 -0.0411911 31.5 -0.0411911 33.3941C0.0411917 44.7177 0.0411917 56.0412 -0.0411911 67.3647C-0.0411911 69.3412 0.576679 69.9588 2.55387 69.9588C12.5634 69.9177 22.4905 69.9588 32.4588 69.9588Z" fill="white"/>
<path d="M32.4588 69.9588C22.4905 69.9588 12.5634 69.9177 2.59506 70C0.61787 70 -0.041192 69.3824 -5.99655e-07 67.4059C0.0823822 56.0824 0.0823822 44.7588 -5.99655e-07 33.4353C-5.99655e-07 31.5824 0.535488 30.8 2.47148 30.9235C4.73701 31.0471 7.00253 30.8824 9.26806 30.9647C13.4284 31.1294 15.3644 33.1471 15.4468 37.3059C15.5292 41.2176 15.282 45.1706 15.8999 49C17.424 58.3882 25.3739 64.4824 34.642 63.8235C43.0038 63.2471 50.2123 55.3412 50.5006 46.3647C50.583 43.6882 50.5418 41.0118 50.5418 38.3353C50.5418 33.9706 52.8485 31.3765 57.2148 31.0471C59.2744 30.8824 61.334 31.0059 63.3935 31.0059C64.6293 31.0059 65.0412 31.6235 65.0412 32.7765C65 44.5941 65 56.3706 65.0412 68.1882C65.0412 69.9177 64.0526 70 62.7757 70C52.6426 69.9588 42.5507 69.9588 32.4588 69.9588Z" fill="white"/>
<path d="M23.3143 34.3412C23.0672 34.1353 23.3555 32.0353 23.3555 31.6235C23.3555 30.4294 23.3555 29.2765 23.2731 28.0824C23.2319 27.5882 22.6141 27.0118 22.161 26.6824C20.9664 25.7765 19.9778 25.8588 19.5659 24.0882C19.5659 24.0059 19.5247 23.8824 19.5659 23.8412C19.6071 23.7588 19.6895 23.7177 19.8131 23.6765C20.4309 23.4706 21.0488 23.2235 21.7079 23.1412C22.1198 23.1 22.5729 23.4294 23.3143 23.6765C23.3143 21.5353 23.3967 19.5588 23.2731 17.6235C23.2319 17.1294 22.6141 16.5941 22.1198 16.2235C21.0488 15.4412 19.8542 15.0706 19.4835 13.6294C19.4835 13.5471 19.4423 13.4647 19.4835 13.4235C19.5247 13.3412 19.6071 13.3 19.6895 13.2588C20.019 13.0941 23.2731 12.2706 23.2731 13.2588C23.2731 10.9941 23.3143 8.89413 23.2319 6.83531C23.2319 6.42354 22.7376 5.92942 22.3257 5.68236C21.8314 5.39413 18.0006 3.50001 19.6895 2.55295C19.7719 2.4706 23.0672 1.60589 22.7376 2.4706C23.8086 -0.370577 23.9734 -0.45293 26.898 0.741188C31.4702 2.63531 36.0013 4.5706 40.5735 6.38236C42.0152 6.95884 42.7155 7.82354 42.5095 9.30589C42.3035 10.8294 43.0038 11.5294 44.3631 11.9824C45.3929 12.3118 46.3815 12.8882 45.8048 14.2059C45.2281 15.4412 44.1984 15.1941 43.1686 14.7412C38.2668 12.6412 33.365 10.5 28.4632 8.35884C27.763 8.0706 27.0627 7.78236 26.4037 7.53531C25.7034 9.42942 26.4449 10.2941 28.1337 10.9941C32.2529 12.6412 36.3308 14.5353 40.4499 16.1824C41.9328 16.8 42.6743 17.5824 42.5095 19.2294C42.3447 20.753 42.3035 22.1941 44.4043 22.6882C44.8162 22.7706 45.0222 23.3471 45.1869 23.6765C45.5577 24.4177 45.6812 24.5 45.0634 24.9941C43.4981 26.2294 40.1204 24.0059 38.6375 23.3882C36.0013 22.2353 33.365 21.0412 30.7288 19.8882C29.2871 19.2706 27.8454 18.653 26.3625 18.0353C25.7446 20.0941 26.1565 21.2471 28.2985 21.9882C32.294 23.3882 36.1248 25.2412 40.1204 26.7647C41.8504 27.4235 42.7567 28.3706 42.4683 30.2647C42.2624 31.7059 42.7567 32.5706 44.2395 32.9824C45.2693 33.2706 46.2991 33.8471 45.7636 35.1647C45.1869 36.5647 44.0748 36.1941 43.0038 35.7412C37.5253 33.3941 32.0469 31.0882 26.4449 28.7C25.9506 30.5118 26.1977 31.4588 27.9689 32.1588C32.2117 33.7647 36.2896 35.6588 40.4911 37.3059C42.0152 37.8824 42.7567 38.7471 42.5507 40.3941C42.3035 42 42.7978 43.0294 44.4867 43.6471C45.1046 43.853 45.8872 45.1294 45.7636 45.7059C45.3929 47.0235 44.2395 46.7353 43.2098 46.2824C38.2256 44.1412 33.2826 41.9588 28.2985 39.8177C27.6806 39.5706 27.0627 39.3235 26.4449 39.0765C25.827 40.8059 26.2801 41.753 27.8866 42.4118C31.7997 44.0588 35.6305 45.9118 39.5025 47.6824C41.6857 48.7118 41.8504 49.4118 40.3676 51.2235C38.3904 53.6118 36.372 55.9177 34.3948 58.3059C33.3238 59.6235 32.294 59.6647 31.1819 58.3471C28.834 55.4647 26.3625 52.7059 24.0558 49.8235C23.5615 49.2059 23.3143 48.2177 23.2731 47.3941C23.1907 44.7177 23.1907 42.0412 23.2731 39.3647C23.3143 38.0882 23.026 37.2647 21.7079 36.9353C20.8428 36.7294 20.019 35.9882 19.6895 35.1647C18.8657 33.1059 22.4493 33.6824 23.3143 34.3412Z" fill="white"/>
</g>
<defs>
<clipPath id="clip0_1_786">
<rect width="65" height="70" fill="white"/>
</clipPath>
</defs>
</svg>
